<svg xmlns="http://www.w3.org/2000/svg" width="32" height="32" viewBox="0 0 30 30" fill="none">
    <path fill-rule="evenodd" fill="hsl( 208, 4%, calc(calc(10% + 78% * 0) + 50% * calc(1 + 0 * -2)) )" d="M9.68848 8.70068C9.68848 8.42454 9.91233 8.20068 10.1885 8.20068H15.0885C15.2211 8.20068 15.3483 8.25336 15.442 8.34713L20.342 13.2471C20.4358 13.3409 20.4885 13.4681 20.4885 13.6007V21.3007C20.4885 21.5768 20.2646 21.8007 19.9885 21.8007H10.1885C9.91233 21.8007 9.68848 21.5768 9.68848 21.3007V8.70068ZM10.6885 9.20068V20.8007H19.4885V14.1007L15.0885 14.1007C14.8123 14.1007 14.5885 13.8768 14.5885 13.6007L14.5885 9.20068H10.6885ZM15.5885 9.90779L18.7814 13.1007L15.5885 13.1007L15.5885 9.90779Z"/>
  </svg>